<svg height="41" viewBox="0 0 205 41" width="205" xmlns="http://www.w3.org/2000/svg" xmlns:xlink="http://www.w3.org/1999/xlink"><filter id="a" height="134.2%" width="106.5%" x="-3.2%" y="-17.1%"><feOffset dx="1" dy="1" in="SourceAlpha" result="shadowOffsetOuter1"/><feGaussianBlur in="shadowOffsetOuter1" result="shadowBlurOuter1" stdDeviation="1"/><feColorMatrix in="shadowBlurOuter1" result="shadowMatrixOuter1" type="matrix" values="0 0 0 0 0   0 0 0 0 0   0 0 0 0 0  0 0 0 0.5 0"/><feMerge><feMergeNode in="shadowMatrixOuter1"/><feMergeNode in="SourceGraphic"/></feMerge></filter><g fill="none" filter="url(#a)" transform="translate(1 1)"><g transform="translate(43.48 .28)"><path d="m7.672 19.488v-1.4c3.0986822 0 5.3013268-.5413279 6.608-1.624s1.96-2.8933206 1.96-5.432c0-5.11469224-2.370643-7.672-7.112-7.672-.67200336 0-1.62399384.0933324-2.856.28l-.56 8.288v11.76l.784 11.032h-6.272l.784-11.088v-15.064l-1.008-7.392c4.40535536-.78400392 7.85865416-1.176 10.36-1.176 7.5787046 0 11.368 3.49063176 11.368 10.472 0 2.6506799-.6533268 4.8253248-1.96 6.524s-3.1919877 2.8279972-5.656 3.388l6.552 8.624 4.76 5.208v.56l-7.56.392-2.8-5.824zm32.536 16.072c-3.3600168 0-6.1039894-1.1199888-8.232-3.36s-3.192-5.3293136-3.192-9.268 1.0826558-7.1959871 3.248-9.772 4.8066511-3.864 7.924-3.864 5.4599922.7653257 7.028 2.296 2.352 3.6773195 2.352 6.44c0 1.008005-.0933324 2.2213262-.28 3.64l-15.12.504c0 3.1733492.5506612 5.6279913 1.652 7.364s2.6599899 2.604 4.676 2.604c2.6506799 0 5.0959888-.9519905 7.336-2.856l1.512 4.144c-2.5386794 1.4186738-5.5066497 2.128-8.904 2.128zm-6.16-16.296 10.192-.448c-.0373335-2.2773447-.4106631-3.8639955-1.12-4.76s-1.8666586-1.344-3.472-1.344-2.8559955.1679983-3.752.504c-.933338 1.008005-1.5493318 3.0239849-1.848 6.048z" fill="#fff"/><path d="m56.84 34.72.784-11.088v-15.064l-1.008-7.392c3.9200196-.78400392 7.6346491-1.176 11.144-1.176 6.0106967 0 10.4626522 1.37198628 13.356 4.116s4.34 6.9719714 4.34 12.684-1.7826488 10.2666497-5.348 13.664-8.3533033 5.096-14.364 5.096c-2.9493481 0-5.9173184-.2799972-8.904-.84zm5.992-3.584c1.4933408.4853358 3.210657.728 5.152.728 3.0986822 0 6.047986-.6533268 8.848-1.96.8960045-1.2693397 1.614664-3.0426553 2.156-5.32s.812-4.6293212.812-7.056c0-4.8160241-.9799902-8.32532232-2.94-10.528s-5.0866452-3.304-9.38-3.304c-1.4933408 0-3.0239922.14933184-4.592.448l-.56 7.784v11.76zm37.48 4.424c-3.4720174 0-6.1693237-1.1013223-8.092-3.304s-2.884-5.3479796-2.884-9.436 1.0266564-7.3639877 3.08-9.828 4.8253159-3.696 8.316-3.696c3.490684 0 6.197324 1.0919891 8.12 3.276s2.884 5.3199796 2.884 9.408-1.026656 7.3733209-3.08 9.856-4.834649 3.724-8.344 3.724zm.84-3.416c1.120006 0 2.31466-.1866648 3.584-.56 1.232006-1.7546754 1.848-4.5266477 1.848-8.316s-.550661-6.4959919-1.652-8.12-2.809322-2.436-5.124-2.436c-.858671 0-2.0159927.1866648-3.472.56-1.2320062 1.7173419-1.848 4.479981-1.848 8.288s.5319947 6.5239919 1.596 8.148 2.7533218 2.436 5.068 2.436zm14.452-19.04-.168-2.184 5.04-1.624 1.848-6.384h2.408l.336 6.384h7.056l-.168 2.968-7.056.504v13.944c0 1.9786766.195998 3.3506628.588 4.116s1.175994 1.148 2.352 1.148 2.435993-.1866648 3.78-.56l-.504 3.192c-1.26934.6346698-2.930656.952-4.984.952s-3.574662-.5599944-4.564-1.68-1.484-3.042653-1.484-5.768c0-.933338.111999-5.9359546.336-15.008zm27.608 22.456c-2.389345 0-4.227994-.6439936-5.516-1.932s-1.932-3.0519888-1.932-5.292.914658-3.9013279 2.744-4.984 5.674637-2.1653279 11.536-3.248c0-2.8373475-.31733-4.7973279-.952-5.88s-1.773325-1.624-3.416-1.624c-.896004 0-1.605331.037333-2.128.112l-4.704 4.144-2.52-4.2c2.874681-2.2773447 6.085316-3.416 9.632-3.416 5.861363 0 8.792 2.9493038 8.792 8.848v10.36l1.008 6.328-5.208.784-.224-2.8c-2.314678 1.866676-4.685321 2.8-7.112 2.8zm-2.688-7.448c0 1.2320062.382663 2.2026631 1.148 2.912s1.959992 1.064 3.584 1.064 3.219992-.5786609 4.788-1.736v-7.056c-3.584018.5226693-6.626654 1.3253279-9.128 2.408-.261335 1.008005-.392 1.8106637-.392 2.408z" fill="#e30000"/></g><g transform="translate(44.48 1.28)"><path d="m7.672 19.488v-1.4c3.0986822 0 5.3013268-.5413279 6.608-1.624s1.96-2.8933206 1.96-5.432c0-5.11469224-2.370643-7.672-7.112-7.672-.67200336 0-1.62399384.0933324-2.856.28l-.56 8.288v11.76l.784 11.032h-6.272l.784-11.088v-15.064l-1.008-7.392c4.40535536-.78400392 7.85865416-1.176 10.36-1.176 7.5787046 0 11.368 3.49063176 11.368 10.472 0 2.6506799-.6533268 4.8253248-1.96 6.524s-3.1919877 2.8279972-5.656 3.388l6.552 8.624 4.76 5.208v.56l-7.56.392-2.8-5.824zm32.536 16.072c-3.3600168 0-6.1039894-1.1199888-8.232-3.36s-3.192-5.3293136-3.192-9.268 1.0826558-7.1959871 3.248-9.772 4.8066511-3.864 7.924-3.864 5.4599922.7653257 7.028 2.296 2.352 3.6773195 2.352 6.44c0 1.008005-.0933324 2.2213262-.28 3.64l-15.12.504c0 3.1733492.5506612 5.6279913 1.652 7.364s2.6599899 2.604 4.676 2.604c2.6506799 0 5.0959888-.9519905 7.336-2.856l1.512 4.144c-2.5386794 1.4186738-5.5066497 2.128-8.904 2.128zm-6.16-16.296 10.192-.448c-.0373335-2.2773447-.4106631-3.8639955-1.12-4.76s-1.8666586-1.344-3.472-1.344-2.8559955.1679983-3.752.504c-.933338 1.008005-1.5493318 3.0239849-1.848 6.048z" fill="#fff"/><path d="m56.84 34.72.784-11.088v-15.064l-1.008-7.392c3.9200196-.78400392 7.6346491-1.176 11.144-1.176 6.0106967 0 10.4626522 1.37198628 13.356 4.116s4.34 6.9719714 4.34 12.684-1.7826488 10.2666497-5.348 13.664-8.3533033 5.096-14.364 5.096c-2.9493481 0-5.9173184-.2799972-8.904-.84zm5.992-3.584c1.4933408.4853358 3.210657.728 5.152.728 3.0986822 0 6.047986-.6533268 8.848-1.96.8960045-1.2693397 1.614664-3.0426553 2.156-5.32s.812-4.6293212.812-7.056c0-4.8160241-.9799902-8.32532232-2.94-10.528s-5.0866452-3.304-9.38-3.304c-1.4933408 0-3.0239922.14933184-4.592.448l-.56 7.784v11.76zm37.48 4.424c-3.4720174 0-6.1693237-1.1013223-8.092-3.304s-2.884-5.3479796-2.884-9.436 1.0266564-7.3639877 3.08-9.828 4.8253159-3.696 8.316-3.696c3.490684 0 6.197324 1.0919891 8.12 3.276s2.884 5.3199796 2.884 9.408-1.026656 7.3733209-3.08 9.856-4.834649 3.724-8.344 3.724zm.84-3.416c1.120006 0 2.31466-.1866648 3.584-.56 1.232006-1.7546754 1.848-4.5266477 1.848-8.316s-.550661-6.4959919-1.652-8.12-2.809322-2.436-5.124-2.436c-.858671 0-2.0159927.1866648-3.472.56-1.2320062 1.7173419-1.848 4.479981-1.848 8.288s.5319947 6.5239919 1.596 8.148 2.7533218 2.436 5.068 2.436zm14.452-19.04-.168-2.184 5.04-1.624 1.848-6.384h2.408l.336 6.384h7.056l-.168 2.968-7.056.504v13.944c0 1.9786766.195998 3.3506628.588 4.116s1.175994 1.148 2.352 1.148 2.435993-.1866648 3.78-.56l-.504 3.192c-1.26934.6346698-2.930656.952-4.984.952s-3.574662-.5599944-4.564-1.68-1.484-3.042653-1.484-5.768c0-.933338.111999-5.9359546.336-15.008zm27.608 22.456c-2.389345 0-4.227994-.6439936-5.516-1.932s-1.932-3.0519888-1.932-5.292.914658-3.9013279 2.744-4.984 5.674637-2.1653279 11.536-3.248c0-2.8373475-.31733-4.7973279-.952-5.88s-1.773325-1.624-3.416-1.624c-.896004 0-1.605331.037333-2.128.112l-4.704 4.144-2.52-4.2c2.874681-2.2773447 6.085316-3.416 9.632-3.416 5.861363 0 8.792 2.9493038 8.792 8.848v10.36l1.008 6.328-5.208.784-.224-2.8c-2.314678 1.866676-4.685321 2.8-7.112 2.8zm-2.688-7.448c0 1.2320062.382663 2.2026631 1.148 2.912s1.959992 1.064 3.584 1.064 3.219992-.5786609 4.788-1.736v-7.056c-3.584018.5226693-6.626654 1.3253279-9.128 2.408-.261335 1.008005-.392 1.8106637-.392 2.408z" fill="#c70000"/></g><path d="m18.0319547 1.0625171c4.6594966.00843372 8.8900468 1.84458809 12.0135212 4.829429l2.5111939-2.51119397c1.0631307-1.06306204 2.8807457-.31015703 2.8807457 1.19331839v9.42597238c0 .9319817-.7555142 1.687496-1.687496 1.687496h-9.4259724c-1.5034754 0-2.2563804-1.817615-1.1933183-2.8807457l2.9355398-2.93553988c-2.1700693-2.03198521-4.978168-3.15753184-7.9614297-3.18328098-6.4967496-.05609881-11.97300913 5.20153326-11.91684167 11.91388916.05328357 6.3675232 5.21560947 11.7106425 11.81205987 11.7106425 2.891732 0 5.6247806-1.0320257 7.7785764-2.9218756.3335029-.292579.8371562-.2747949 1.1508838.038864l2.7887354 2.7887354c.3425666.3425666.3256065.9010141-.0339202 1.225728-3.0919573 2.7929239-7.1895046 4.4935348-11.6842754 4.4935348-9.6303863 0-17.43745844-7.8070035-17.43745844-17.4373211 0-9.6193313 7.85012472-17.4548305 17.46945604-17.4376524z" fill="#fff"/></g></svg>