<svg height="41" viewBox="0 0 205 41" width="205" xmlns="http://www.w3.org/2000/svg" xmlns:xlink="http://www.w3.org/1999/xlink"><filter id="a" height="121.7%" width="106.4%" x="-3.2%" y="-10.8%"><feOffset dx="1" dy="1" in="SourceAlpha" result="shadowOffsetOuter1"/><feGaussianBlur in="shadowOffsetOuter1" result="shadowBlurOuter1" stdDeviation="1"/><feColorMatrix in="shadowBlurOuter1" result="shadowMatrixOuter1" type="matrix" values="0 0 0 0 0   0 0 0 0 0   0 0 0 0 0  0 0 0 0.5 0"/><feMerge><feMergeNode in="shadowMatrixOuter1"/><feMergeNode in="SourceGraphic"/></feMerge></filter><g fill="none" fill-rule="evenodd" filter="url(#a)" transform="translate(1 -10)"><text font-family="Galdeano-Regular, Galdeano" font-size="56"><tspan fill="#fff" x="39" y="46">Re</tspan> <tspan fill="#e30000" letter-spacing="-2" x="95.616" y="46">D</tspan> <tspan fill="#e30000" letter-spacing="-.5" x="130.016" y="46">o</tspan> <tspan fill="#e30000" x="157.516" y="46">ta</tspan></text><text font-family="Galdeano-Regular, Galdeano" font-size="56"><tspan fill="#fff" x="40" y="47">Re</tspan> <tspan fill="#c70000" letter-spacing="-2" x="96.616" y="47">D</tspan> <tspan fill="#c70000" letter-spacing="-.5" x="131.016" y="47">o</tspan> <tspan fill="#c70000" x="158.516" y="47">ta</tspan></text><path d="m18.0319547 12.0625171c4.6594966.0084337 8.8900468 1.8445881 12.0135212 4.829429l2.5111939-2.511194c1.0631307-1.063062 2.8807457-.310157 2.8807457 1.1933184v9.4259724c0 .9319817-.7555142 1.687496-1.687496 1.687496h-9.4259724c-1.5034754 0-2.2563804-1.817615-1.1933183-2.8807457l2.9355398-2.9355399c-2.1700693-2.0319852-4.978168-3.1575318-7.9614297-3.183281-6.4967496-.0560988-11.97300913 5.2015333-11.91684167 11.9138892.05328357 6.3675232 5.21560947 11.7106425 11.81205987 11.7106425 2.891732 0 5.6247806-1.0320257 7.7785764-2.9218756.3335029-.292579.8371562-.2747949 1.1508838.038864l2.7887354 2.7887354c.3425666.3425666.3256065.9010141-.0339202 1.225728-3.0919573 2.7929239-7.1895046 4.4935348-11.6842754 4.4935348-9.6303863 0-17.43745844-7.8070035-17.43745844-17.4373211 0-9.6193313 7.85012472-17.4548305 17.46945604-17.4376524z" fill="#fff" fill-rule="nonzero"/></g></svg>